<svg width="64" height="64" viewBox="0 0 64 64" fill="none" xmlns="http://www.w3.org/2000/svg">
<circle cx="32" cy="32.0002" r="32" fill="white"/>
<g clip-path="url(#clip0_7196_20483)">
<path d="M44.463 24.3971C43.9695 23.7595 43.2437 23.3888 42.4454 23.3888H24.52L24.3313 22.3806C23.983 20.4234 22.3138 19 20.3689 19H17.0886C16.4935 19 16 19.5041 16 20.112C16 20.7199 16.4935 21.2241 17.0886 21.2241H20.3689C21.2688 21.2241 22.038 21.8765 22.1977 22.7809L24.4039 35.1912C24.6216 36.4367 25.6812 37.3411 26.9294 37.3411H40.3263C41.502 37.3411 42.518 36.5256 42.8083 35.3543L44.9419 26.6508C45.1161 25.8501 44.9565 25.0346 44.463 24.3971Z" fill="#FF4E4E"/>
<path d="M29.2521 38.8681C27.3652 38.8681 25.8267 40.4398 25.8267 42.3673C25.8267 44.2948 27.3652 45.8665 29.2521 45.8665C31.139 45.8665 32.6775 44.2948 32.6775 42.3673C32.6775 40.4398 31.139 38.8681 29.2521 38.8681ZM29.2521 43.6276C28.5699 43.6276 28.0038 43.0642 28.0038 42.3525C28.0038 41.6408 28.5554 41.0773 29.2521 41.0773C29.9488 41.0773 30.5003 41.6408 30.5003 42.3525C30.5003 43.0642 29.9343 43.6276 29.2521 43.6276Z" fill="#FF4E4E"/>
<path d="M37.7138 38.8681C35.8269 38.8681 34.2883 40.4398 34.2883 42.3673C34.2883 44.2948 35.8269 45.8665 37.7138 45.8665C39.6006 45.8665 41.1392 44.2948 41.1392 42.3673C41.1392 40.4398 39.6006 38.8681 37.7138 38.8681ZM37.7138 43.6276C37.0316 43.6276 36.4655 43.0642 36.4655 42.3525C36.4655 41.6408 37.0171 41.0773 37.7138 41.0773C38.4105 41.0773 38.962 41.6408 38.962 42.3525C38.962 43.0642 38.4105 43.6276 37.7138 43.6276Z" fill="#FF4E4E"/>
</g>
<defs>
<clipPath id="clip0_7196_20483">
<rect width="29" height="26.8519" fill="white" transform="translate(16 19)"/>
</clipPath>
</defs>
</svg>
