<svg width="64" height="64" viewBox="0 0 64 64" fill="none" xmlns="http://www.w3.org/2000/svg">
<circle cx="32" cy="32" r="32" fill="white"/>
<g clip-path="url(#clip0_6266_56277)">
<path d="M41.7054 33.0027C40.4103 33.0027 39.2559 32.4496 38.4676 31.6061C37.6793 32.4496 36.5249 33.0027 35.2298 33.0027C33.9347 33.0027 32.7803 32.4496 31.992 31.6061C31.2037 32.4496 30.0493 33.0027 28.7542 33.0027C27.4591 33.0027 26.3047 32.4496 25.5164 31.6061C24.728 32.4496 23.5737 33.0027 22.2786 33.0027C21.9689 33.0027 21.6592 32.975 21.3776 32.9059C20.5048 32.7261 19.7024 33.376 19.7024 34.2609V42.1977C19.7024 44.2994 21.4339 46.0002 23.5737 46.0002H24.9814C27.1212 46.0002 28.8527 44.2994 28.8527 42.1977V38.7409C28.8527 38.5473 29.0076 38.3952 29.2047 38.3952H34.8356C35.0327 38.3952 35.1876 38.5473 35.1876 38.7409V42.1977C35.1876 44.2994 36.9191 46.0002 39.0589 46.0002H40.4666C42.6064 46.0002 44.3379 44.2994 44.3379 42.1977V34.2471C44.3379 33.376 43.5214 32.7123 42.6486 32.9059C42.353 32.9612 42.0292 33.0027 41.7054 33.0027Z" fill="#FC3846"/>
<path d="M43.5083 19.6867C43.1986 18.6773 42.2413 17.9998 41.1574 17.9998H22.8426C21.7587 17.9998 20.8014 18.6773 20.4917 19.6867L18.0422 27.3746L18 27.6788C18 29.8497 19.9286 31.6195 22.2936 31.6195C23.5887 31.6195 24.7431 31.0803 25.5314 30.2368C26.3198 31.0803 27.4741 31.6195 28.7692 31.6195C30.0644 31.6195 31.2187 31.0803 32.007 30.2368C32.7954 31.0803 33.9497 31.6195 35.2448 31.6195C36.54 31.6195 37.6943 31.0803 38.4827 30.2368C39.271 31.0803 40.4253 31.6195 41.7205 31.6195C44.0855 31.6195 46.0141 29.8497 46.0141 27.6788L43.5083 19.6867Z" fill="#FC3846"/>
</g>
<defs>
<clipPath id="clip0_6266_56277">
<rect width="28" height="28" fill="white" transform="translate(18 17.9998)"/>
</clipPath>
</defs>
</svg>
